<?xml version="1.0" encoding="UTF-8" standalone="no"?>
<svg
   width="259.99976"
   height="68.000084"
   viewBox="0 0 259.99976 68.000084"
   version="1.1"
   xml:space="preserve"
   style="clip-rule:evenodd;fill-rule:evenodd;stroke-linejoin:round;stroke-miterlimit:2"
   id="svg2099"
   sodipodi:docname="umers_assets-2.svg"
   xmlns:inkscape="http://www.inkscape.org/namespaces/inkscape"
   xmlns:sodipodi="http://sodipodi.sourceforge.net/DTD/sodipodi-0.dtd"
   xmlns="http://www.w3.org/2000/svg"
   xmlns:svg="http://www.w3.org/2000/svg"><sodipodi:namedview
   id="namedview2099"
   pagecolor="#505050"
   bordercolor="#ffffff"
   borderopacity="1"
   inkscape:showpageshadow="0"
   inkscape:pageopacity="0"
   inkscape:pagecheckerboard="1"
   inkscape:deskcolor="#505050" />&#10;    <g
   id="Artboard1"
   transform="matrix(0.733277,0,0,1,-692.97775,-3654.2726)">&#10;        &#10;        <clipPath
   id="_clip1">&#10;            <rect
   x="-1453.85"
   y="2245.97"
   width="6225.5898"
   height="3146.4199"
   id="rect2" />&#10;        </clipPath>&#10;        <g
   clip-path="url(#_clip1)"
   id="g407">&#10;            &#10;            &#10;            &#10;            &#10;            &#10;            &#10;            &#10;            &#10;            &#10;            &#10;            &#10;            &#10;            &#10;            &#10;            &#10;            &#10;            &#10;            &#10;            <g
   transform="matrix(0.174422,0,0,0.1358,857.938,3590.2)"
   id="g102">&#10;                <path
   d="m 2532.23,597 c 0,-69.091 -59.55,-125.184 -132.91,-125.184 H 632.305 c -73.359,0 -132.917,56.093 -132.917,125.184 v 250.369 c 0,69.091 59.558,125.184 132.917,125.184 H 2399.32 c 73.36,0 132.91,-56.093 132.91,-125.184 z"
   style="fill:#fda333"
   id="path97" />&#10;                <clipPath
   id="_clip57">&#10;                    <path
   d="m 2532.23,597 c 0,-69.091 -59.55,-125.184 -132.91,-125.184 H 632.305 c -73.359,0 -132.917,56.093 -132.917,125.184 v 250.369 c 0,69.091 59.558,125.184 132.917,125.184 H 2399.32 c 73.36,0 132.91,-56.093 132.91,-125.184 z"
   id="path98" />&#10;                </clipPath>&#10;                <g
   clip-path="url(#_clip57)"
   id="g101">&#10;                    <g
   transform="matrix(0.535543,0,0,1.69618,1871.02,2687.07)"
   id="g99">&#10;                        <path
   d="M 1522.33,-869.712 C 1236.83,-699.707 1313.85,-1676.58 1277.69,-1793.88 1174.47,-2128.7 603.108,-548.465 1059.97,-166.6 537.303,153.927 -257.692,507.914 1745.11,518.142 1800.38,228.661 1707.95,-980.246 1522.33,-869.712 Z"
   style="fill:url(#_Linear58)"
   id="path99" />&#10;                    </g>&#10;                    <g
   transform="matrix(-0.280479,2.89793,1.09172,1.57259,2701.69,-1840.17)"
   id="g100">&#10;                        <path
   d="m 1988.15,-1351.77 c -271.57,-685.91 -600.92,-708.72 -994.003,0 911.453,351.827 126.843,-1091.91 0,964.111 -477.819,32.293 -815.506,799.554 994.003,0 -494.88,4.854 -639.6,-221.117 0,-964.111 z"
   style="fill:url(#_Linear59)"
   id="path100" />&#10;                    </g>&#10;                </g>&#10;            </g>&#10;            &#10;            &#10;            &#10;            &#10;            &#10;            &#10;            &#10;            &#10;            &#10;            &#10;            &#10;            &#10;            &#10;            &#10;            &#10;            &#10;            &#10;            &#10;            &#10;            &#10;            &#10;            &#10;            &#10;            &#10;            &#10;            &#10;            &#10;            &#10;            &#10;            &#10;            &#10;            &#10;            &#10;            &#10;            &#10;            &#10;            &#10;            &#10;            &#10;            &#10;            &#10;            &#10;            &#10;        </g>&#10;    </g>&#10;    &#10;    &#10;    &#10;    <defs
   id="defs2099"><linearGradient
     id="_Linear58"
     x1="0"
     y1="0"
     x2="1"
     y2="0"
     gradientUnits="userSpaceOnUse"
     gradientTransform="matrix(0,-2211.43,2076.73,0,1491.15,593.201)"><stop
       offset="0"
       style="stop-color:rgb(251,68,133);stop-opacity:1"
       id="stop1824" /><stop
       offset="1"
       style="stop-color:rgb(251,68,133);stop-opacity:0"
       id="stop1825" /></linearGradient><linearGradient
     id="_Linear59"
     x1="0"
     y1="0"
     x2="1"
     y2="0.15301301"
     gradientUnits="userSpaceOnUse"
     gradientTransform="matrix(793.677,-2064,1938.28,845.153,994.147,150.916)"><stop
       offset="0"
       style="stop-color:rgb(60,29,90);stop-opacity:1"
       id="stop1826" /><stop
       offset="1"
       style="stop-color:rgb(60,29,90);stop-opacity:0"
       id="stop1827" /></linearGradient></defs>&#10;</svg>
