<?xml version="1.0" encoding="UTF-8" standalone="no"?>
<svg
   width="259.99915"
   height="68.000084"
   viewBox="0 0 259.99915 68.000084"
   version="1.1"
   xml:space="preserve"
   style="clip-rule:evenodd;fill-rule:evenodd;stroke-linejoin:round;stroke-miterlimit:2"
   id="svg464"
   xmlns="http://www.w3.org/2000/svg"
   xmlns:svg="http://www.w3.org/2000/svg">&#10;    <g
   id="Artboard1"
   transform="matrix(0.621151,0,0,1,-315.15865,-2422.1826)">&#10;        &#10;        &#10;        &#10;        &#10;        &#10;        &#10;        &#10;        &#10;        <g
   transform="matrix(0.205907,0,0,0.1358,404.551,2358.11)"
   id="g33">&#10;            <path
   d="m 2532.23,597 c 0,-69.091 -59.55,-125.184 -132.91,-125.184 H 632.305 c -73.359,0 -132.917,56.093 -132.917,125.184 v 250.369 c 0,69.091 59.558,125.184 132.917,125.184 H 2399.32 c 73.36,0 132.91,-56.093 132.91,-125.184 z"
   style="fill:#22153f"
   id="path25" />&#10;            <clipPath
   id="_clip7">&#10;                <path
   d="m 2532.23,597 c 0,-69.091 -59.55,-125.184 -132.91,-125.184 H 632.305 c -73.359,0 -132.917,56.093 -132.917,125.184 v 250.369 c 0,69.091 59.558,125.184 132.917,125.184 H 2399.32 c 73.36,0 132.91,-56.093 132.91,-125.184 z"
   id="path26" />&#10;            </clipPath>&#10;            <g
   clip-path="url(#_clip7)"
   id="g32">&#10;                <g
   transform="matrix(0.293106,-0.422139,1.50727,0.928328,2651.34,2074.49)"
   id="g27">&#10;                    <path
   d="m 1988.15,-1351.77 c -115.04,-236.16 -1032.041,-763.27 -994.003,0 16.283,326.65 561.103,1443.242 128.563,1732.845 0,0 721.2,-479.927 865.44,-768.734 143.59,-287.506 103.17,-752.281 0,-964.111 z"
   style="fill:url(#_Linear8)"
   id="path27" />&#10;                </g>&#10;                <g
   transform="matrix(0.293106,-0.422139,1.50727,0.928328,2915.62,1621.42)"
   id="g28">&#10;                    <path
   d="M 1522.33,-869.712 C 1236.83,-699.707 1313.85,-1676.58 1277.69,-1793.88 1174.47,-2128.7 603.108,-548.465 1059.97,-166.6 537.303,153.927 -257.692,507.914 1745.11,518.142 1800.38,228.661 1707.95,-980.246 1522.33,-869.712 Z"
   style="fill:url(#_Linear9)"
   id="path28" />&#10;                </g>&#10;                <g
   transform="matrix(1.66021,0.669805,0.687041,0.824329,-180.463,894.956)"
   id="g29">&#10;                    <path
   d="m 1988.15,-1351.77 c -364.26,-943.44 -1269.362,-621.45 -994.003,0 93.493,211.01 327.133,1025.437 0,964.111 130.013,-643.131 499.393,-521.605 994.003,0 -344.19,-630.611 -521.47,-1111.261 0,-964.111 z"
   style="fill:url(#_Linear10)"
   id="path29" />&#10;                </g>&#10;                <g
   transform="matrix(0.293106,-0.422139,1.50727,0.928328,1206.94,2835.48)"
   id="g30">&#10;                    <path
   d="m 1988.15,-1351.77 c -271.57,-685.91 -600.92,-708.72 -994.003,0 948.773,527.178 520.103,755.56 0,964.111 78.103,-670.681 389.313,-723.971 994.003,0 -494.88,4.854 -639.6,-221.117 0,-964.111 z"
   style="fill:url(#_Linear11)"
   id="path30" />&#10;                </g>&#10;                <g
   transform="matrix(1.61744,1.20699,0.804851,5.98957e-5,-834.216,-600.087)"
   id="g31">&#10;                    <path
   d="m 1988.15,-1351.77 c -271.57,-685.91 -600.92,-708.72 -994.003,0 911.453,351.827 126.843,-1091.91 0,964.111 -477.819,32.293 -815.506,799.554 994.003,0 -494.88,4.854 -639.6,-221.117 0,-964.111 z"
   style="fill:url(#_Linear12)"
   id="path31" />&#10;                </g>&#10;            </g>&#10;        </g>&#10;        &#10;        &#10;        &#10;        &#10;        &#10;        &#10;        &#10;        &#10;        &#10;        &#10;        &#10;        &#10;        &#10;        &#10;        &#10;        &#10;        &#10;        &#10;        &#10;        &#10;        &#10;        &#10;        &#10;        &#10;        &#10;        &#10;        &#10;        &#10;        &#10;        &#10;        &#10;        &#10;        &#10;        &#10;        &#10;        &#10;        &#10;        &#10;        &#10;        &#10;        &#10;        &#10;        &#10;        &#10;    </g>&#10;    <defs
   id="defs464"><linearGradient
     id="_Linear8"
     x1="0"
     y1="0"
     x2="1"
     y2="0.51404399"
     gradientUnits="userSpaceOnUse"
     gradientTransform="matrix(69.2244,-1653.3,1552.6,73.7142,1313.65,-49.1659)"><stop
       offset="0"
       style="stop-color:rgb(108,224,241);stop-opacity:1"
       id="stop293" /><stop
       offset="1"
       style="stop-color:rgb(108,224,241);stop-opacity:0"
       id="stop294" /></linearGradient><linearGradient
     id="_Linear9"
     x1="0"
     y1="0"
     x2="1"
     y2="0"
     gradientUnits="userSpaceOnUse"
     gradientTransform="matrix(0,-2211.43,2076.73,0,1491.15,593.201)"><stop
       offset="0"
       style="stop-color:rgb(251,68,133);stop-opacity:1"
       id="stop295" /><stop
       offset="1"
       style="stop-color:rgb(251,68,133);stop-opacity:0"
       id="stop296" /></linearGradient><linearGradient
     id="_Linear10"
     x1="0"
     y1="0"
     x2="1"
     y2="0.57553601"
     gradientUnits="userSpaceOnUse"
     gradientTransform="matrix(0,-1653.3,1552.6,0,1491.15,108.793)"><stop
       offset="0"
       style="stop-color:rgb(253,163,51);stop-opacity:1"
       id="stop297" /><stop
       offset="1"
       style="stop-color:rgb(253,163,51);stop-opacity:0"
       id="stop298" /></linearGradient><linearGradient
     id="_Linear11"
     x1="0"
     y1="0"
     x2="1"
     y2="1.53689"
     gradientUnits="userSpaceOnUse"
     gradientTransform="matrix(793.677,-2064,1938.28,845.153,994.147,150.916)"><stop
       offset="0"
       style="stop-color:rgb(60,29,90);stop-opacity:1"
       id="stop299" /><stop
       offset="1"
       style="stop-color:rgb(60,29,90);stop-opacity:0"
       id="stop300" /></linearGradient><linearGradient
     id="_Linear12"
     x1="0"
     y1="0"
     x2="1"
     y2="-0.0523987"
     gradientUnits="userSpaceOnUse"
     gradientTransform="matrix(793.677,-2064,1938.28,845.153,994.147,150.916)"><stop
       offset="0"
       style="stop-color:rgb(60,29,90);stop-opacity:1"
       id="stop301" /><stop
       offset="1"
       style="stop-color:rgb(60,29,90);stop-opacity:0"
       id="stop302" /></linearGradient></defs>&#10;</svg>
