<?xml version="1.0" encoding="UTF-8" standalone="no"?>
<svg
   width="259.99915"
   height="68.000084"
   viewBox="0 0 259.99915 68.000084"
   version="1.1"
   xml:space="preserve"
   style="clip-rule:evenodd;fill-rule:evenodd;stroke-linejoin:round;stroke-miterlimit:2"
   id="svg464"
   xmlns="http://www.w3.org/2000/svg"
   xmlns:svg="http://www.w3.org/2000/svg">&#10;    <g
   id="Artboard1"
   transform="matrix(0.621151,0,0,1,-319.32533,-2753.4726)">&#10;        &#10;        &#10;        &#10;        &#10;        &#10;        &#10;        &#10;        &#10;        &#10;        &#10;        &#10;        &#10;        &#10;        &#10;        <g
   transform="matrix(0.205907,0,0,0.1358,411.259,2689.4)"
   id="g80">&#10;            <path
   d="m 2532.23,597 c 0,-69.091 -59.55,-125.184 -132.91,-125.184 H 632.305 c -73.359,0 -132.917,56.093 -132.917,125.184 v 250.369 c 0,69.091 59.558,125.184 132.917,125.184 H 2399.32 c 73.36,0 132.91,-56.093 132.91,-125.184 z"
   style="fill:#22153f"
   id="path75" />&#10;            <clipPath
   id="_clip43">&#10;                <path
   d="m 2532.23,597 c 0,-69.091 -59.55,-125.184 -132.91,-125.184 H 632.305 c -73.359,0 -132.917,56.093 -132.917,125.184 v 250.369 c 0,69.091 59.558,125.184 132.917,125.184 H 2399.32 c 73.36,0 132.91,-56.093 132.91,-125.184 z"
   id="path76" />&#10;            </clipPath>&#10;            <g
   clip-path="url(#_clip43)"
   id="g79">&#10;                <g
   transform="matrix(0.535543,0,0,1.69618,1871.02,2687.07)"
   id="g77">&#10;                    <path
   d="M 1522.33,-869.712 C 1236.83,-699.707 1313.85,-1676.58 1277.69,-1793.88 1174.47,-2128.7 603.108,-548.465 1059.97,-166.6 537.303,153.927 -257.692,507.914 1745.11,518.142 1800.38,228.661 1707.95,-980.246 1522.33,-869.712 Z"
   style="fill:url(#_Linear44)"
   id="path77" />&#10;                </g>&#10;                <g
   transform="matrix(-0.280479,2.89793,1.09172,1.57259,2701.69,-1840.17)"
   id="g78">&#10;                    <path
   d="m 1988.15,-1351.77 c -271.57,-685.91 -600.92,-708.72 -994.003,0 911.453,351.827 126.843,-1091.91 0,964.111 -477.819,32.293 -815.506,799.554 994.003,0 -494.88,4.854 -639.6,-221.117 0,-964.111 z"
   style="fill:url(#_Linear45)"
   id="path78" />&#10;                </g>&#10;            </g>&#10;        </g>&#10;        &#10;        &#10;        &#10;        &#10;        &#10;        &#10;        &#10;        &#10;        &#10;        &#10;        &#10;        &#10;        &#10;        &#10;        &#10;        &#10;        &#10;        &#10;        &#10;        &#10;        &#10;        &#10;        &#10;        &#10;        &#10;        &#10;        &#10;        &#10;        &#10;        &#10;        &#10;        &#10;        &#10;        &#10;        &#10;        &#10;        &#10;        &#10;    </g>&#10;    <defs
   id="defs464"><linearGradient
     id="_Linear44"
     x1="0"
     y1="0"
     x2="1"
     y2="0"
     gradientUnits="userSpaceOnUse"
     gradientTransform="matrix(0,-2211.43,2076.73,0,1491.15,593.201)"><stop
       offset="0"
       style="stop-color:rgb(251,68,133);stop-opacity:1"
       id="stop353" /><stop
       offset="1"
       style="stop-color:rgb(251,68,133);stop-opacity:0"
       id="stop354" /></linearGradient><linearGradient
     id="_Linear45"
     x1="0"
     y1="0"
     x2="1"
     y2="0.15301301"
     gradientUnits="userSpaceOnUse"
     gradientTransform="matrix(793.677,-2064,1938.28,845.153,994.147,150.916)"><stop
       offset="0"
       style="stop-color:rgb(60,29,90);stop-opacity:1"
       id="stop355" /><stop
       offset="1"
       style="stop-color:rgb(60,29,90);stop-opacity:0"
       id="stop356" /></linearGradient></defs>&#10;</svg>
