<?xml version="1.0" encoding="UTF-8" standalone="no"?>
<!DOCTYPE svg PUBLIC "-//W3C//DTD SVG 1.1//EN" "http://www.w3.org/Graphics/SVG/1.1/DTD/svg11.dtd">
<svg width="100%" height="100%" viewBox="0 0 1215 1213" version="1.1" xmlns="http://www.w3.org/2000/svg" xmlns:xlink="http://www.w3.org/1999/xlink" xml:space="preserve" xmlns:serif="http://www.serif.com/" style="fill-rule:evenodd;clip-rule:evenodd;stroke-linejoin:round;stroke-miterlimit:2;">
    <g transform="matrix(1,0,0,1,-1556.48,-1223.99)">
        <g transform="matrix(1,0,0,1,1453.85,-2245.97)">
            <g transform="matrix(1.63529,0,0,1.63529,-512.03,1716.35)">
                <g>
                    <path d="M817.736,1164.34C817.84,1157.44 813.596,1149.91 806.486,1148.37C805.369,1148.13 804.22,1148.05 803.079,1148.11C722.938,1152.65 643.066,1162.45 564.74,1180.24C552.873,1182.94 543.298,1195.13 543.3,1207.28C543.312,1273.13 543.324,1338.98 543.336,1404.82C543.336,1406.64 543.608,1408.45 544.186,1410.17C544.628,1411.49 545.248,1412.74 546.031,1413.89C550.254,1420.08 558.233,1421.79 565.145,1419.74C644.538,1396.19 722.678,1368.62 800.734,1341.02C809.476,1337.93 815.321,1328.15 815.453,1319.11C816.202,1267.52 816.963,1215.93 817.736,1164.34Z" style="fill:rgb(108,224,241);"/>
                    <path d="M805.377,1164.13C804.653,1216.31 803.935,1268.49 803.226,1320.67C803.186,1323.65 801.496,1327.11 798.521,1328.13C720.266,1354.82 642.069,1381.85 562.797,1405.41C561.904,1405.68 560.822,1405.79 560.015,1405.23C559.159,1404.63 558.888,1403.54 558.886,1402.55C558.732,1336.54 558.575,1270.53 558.413,1204.52C558.403,1200.31 561.448,1195.9 565.653,1194.95C644.063,1177.32 723.877,1166.92 804.012,1161.36C804.393,1161.33 804.637,1161.66 804.813,1161.96C805.203,1162.61 805.388,1163.38 805.377,1164.13Z" style="fill:rgb(34,21,63);"/>
                    <g>
                        <g transform="matrix(0.815816,-0.578312,-0.578312,-0.815816,924.879,2918.87)">
                            <g>
                                <path d="M835.03,1191.3C835.904,1184.76 831.766,1178.53 825.503,1176.64C824.265,1176.27 822.979,1176.06 821.688,1176.01C739.582,1172.33 657.227,1169.43 575.083,1173.61C562.638,1174.24 552.529,1185.52 552.05,1197.77C549.323,1267.4 547.867,1337.08 545.058,1406.71C544.796,1413.21 547.982,1420.06 554.494,1422.1C555.912,1422.55 557.397,1422.77 558.88,1422.79C561.191,1422.83 563.497,1422.42 565.692,1421.71C644.634,1396.29 725.005,1375.57 805.318,1355C808.286,1354.24 810.98,1352.62 813.253,1350.59C817.773,1346.55 820.914,1340.8 821.335,1334.71C824.645,1286.81 828.67,1238.91 835.03,1191.3Z" style="fill:rgb(108,224,241);"/>
                            </g>
                        </g>
                        <g transform="matrix(0.815816,-0.578312,-0.578312,-0.815816,924.879,2918.87)">
                            <g>
                                <path d="M824.626,1191.12C824.956,1188.56 822.847,1186.28 820.319,1186.22C738.372,1184.1 656.184,1182.82 574.357,1188.71C570.464,1188.99 567.253,1192.51 567.088,1196.37C564.14,1264.91 562.55,1333.5 559.799,1402.05C559.695,1404.65 561.432,1407.13 564.161,1407.22C564.893,1407.24 565.625,1407.12 566.323,1406.9C645.253,1382.29 725.667,1362.73 806.046,1343.51C808.924,1342.82 811.003,1339.93 811.195,1337.05C814.446,1288.31 818.376,1239.57 824.626,1191.12Z" style="fill:rgb(34,21,63);"/>
                                <g transform="matrix(0.43693,-1.66533e-16,-5.55112e-17,0.535215,398.531,570.816)">
                                    <path d="M827.559,1171.38C827.904,1168.54 825.593,1166.01 822.757,1166.01C741.02,1166.11 659.274,1167.05 577.581,1169.8C574.067,1169.91 570.999,1172.92 570.73,1176.42C565.937,1238.69 562.257,1301.05 558.898,1363.41C558.722,1366.68 561.459,1369.55 564.791,1369.04C644.95,1356.92 725.357,1346.5 805.852,1336.89C808.964,1336.52 811.437,1333.63 811.689,1330.57C816.064,1277.42 821.127,1224.32 827.559,1171.38Z" style="fill:rgb(34,21,63);"/>
                                </g>
                                <g transform="matrix(0.43693,-2.22045e-16,0,0.535215,398.531,570.816)">
                                    <path d="M841.035,1171.33C841.259,1169.53 841.145,1167.68 840.641,1165.94C838.632,1158.98 830.939,1155.14 824.112,1155.09C742.28,1154.54 660.432,1154.82 578.621,1156.89C567.532,1157.17 555.73,1165.34 554.857,1177.06C550.173,1239.9 546.579,1302.83 543.278,1365.76C543.18,1367.64 543.358,1369.55 543.881,1371.36C544.248,1372.64 544.785,1373.87 545.481,1375C549.272,1381.17 557.214,1383.43 564.077,1382.35C644.159,1369.68 724.498,1358.68 804.929,1348.47C814.677,1347.24 824.106,1339.17 824.959,1329.05C829.39,1276.38 834.524,1223.77 841.035,1171.33ZM574.76,1354.42C577.958,1297.03 581.482,1239.66 585.956,1182.36C661.7,1179.32 737.499,1177.81 813.297,1177.06C807.49,1226.68 802.831,1276.44 798.774,1326.23C723.985,1334.65 649.273,1343.81 574.76,1354.42Z" style="fill:rgb(108,224,241);"/>
                                </g>
                                <g transform="matrix(0.853768,1.11022e-16,4.73936e-17,0.535215,103.182,641.839)">
                                    <path d="M818.837,1136.15C818.955,1134.08 817.603,1131.99 815.487,1131.65C815.037,1131.57 814.576,1131.57 814.124,1131.63C732.572,1142.53 651.012,1155.43 571.463,1176.8C567.614,1177.83 564.683,1181.7 564.593,1185.67C563.055,1252.7 561.68,1319.73 560.052,1386.76C560.037,1387.41 560.105,1388.06 560.303,1388.68C561.156,1391.34 564.314,1391.62 566.537,1390.6C644.673,1354.66 725.408,1324.74 806.38,1295.91C809.317,1294.86 811.413,1291.82 811.539,1288.73C813.614,1237.86 815.956,1186.99 818.837,1136.15Z" style="fill:rgb(60,29,90);"/>
                                </g>
                                <g transform="matrix(0.853768,5.55112e-17,5.55112e-17,0.535215,103.182,641.839)">
                                    <path d="M825.151,1135.27C825.324,1132.29 824.962,1129.25 823.679,1126.52C822.107,1123.19 818.516,1120.62 814.729,1121.07C733.148,1130.73 651.522,1142.38 571.803,1162.61C565.769,1164.14 561.496,1169.48 559.018,1174.92C557.132,1179.06 556.107,1183.58 556.007,1188.13C554.512,1255.66 553.161,1323.19 551.53,1390.72C551.44,1394.45 551.924,1398.39 553.944,1401.61C556.543,1405.76 561.982,1406.5 566.19,1404.53C644.323,1367.82 725.024,1336.91 805.943,1306.98C810.513,1305.29 813.533,1301 815.413,1296.7C816.808,1293.5 817.626,1290.05 817.771,1286.56C819.867,1236.11 822.237,1185.68 825.151,1135.27ZM568.679,1375.82C570.174,1314.04 571.487,1252.26 572.942,1190.48C651.316,1168.41 731.721,1154.44 812.166,1142.44C809.558,1190.05 807.4,1237.68 805.474,1285.31C725.527,1312.68 645.836,1341.24 568.679,1375.82Z" style="fill:rgb(108,224,241);"/>
                                </g>
                            </g>
                        </g>
                    </g>
                </g>
            </g>
        </g>
    </g>
</svg>
