<?xml version="1.0" encoding="UTF-8" standalone="no"?>
<svg
   width="1107.5823"
   height="791.87018"
   viewBox="0 0 1107.5823 791.87018"
   version="1.1"
   xml:space="preserve"
   style="clip-rule:evenodd;fill-rule:evenodd;stroke-linejoin:round;stroke-miterlimit:2"
   id="svg464"
   xmlns="http://www.w3.org/2000/svg"
   xmlns:svg="http://www.w3.org/2000/svg">&#10;    <g
   id="Artboard1"
   transform="matrix(0.621151,0,0,1,-1142.4706,-2606.6466)">&#10;        &#10;        &#10;        &#10;        &#10;        &#10;        &#10;        &#10;        &#10;        &#10;        &#10;        &#10;        &#10;        &#10;        &#10;        &#10;        &#10;        &#10;        &#10;        &#10;        &#10;        &#10;        &#10;        &#10;        &#10;        &#10;        &#10;        &#10;        &#10;        &#10;        &#10;        &#10;        &#10;        &#10;        &#10;        &#10;        &#10;        &#10;        &#10;        &#10;        &#10;        &#10;        &#10;        &#10;        &#10;        &#10;        &#10;        &#10;        &#10;        <g
   id="g464"><g
     transform="matrix(2.63268,0,0,1.63529,408.945,729.185)"
     id="g255">&#10;            <g
   id="g254">&#10;                <path
   d="m 817.736,1164.34 c 0.104,-6.9 -4.14,-14.43 -11.25,-15.97 -1.117,-0.24 -2.266,-0.32 -3.407,-0.26 -80.141,4.54 -160.013,14.34 -238.339,32.13 -11.867,2.7 -21.442,14.89 -21.44,27.04 0.012,65.85 0.024,131.7 0.036,197.54 0,1.82 0.272,3.63 0.85,5.35 0.442,1.32 1.062,2.57 1.845,3.72 4.223,6.19 12.202,7.9 19.114,5.85 79.393,-23.55 157.533,-51.12 235.589,-78.72 8.742,-3.09 14.587,-12.87 14.719,-21.91 0.749,-51.59 1.51,-103.18 2.283,-154.77 z"
   style="fill:#FDA333"
   id="path243" />&#10;                <path
   d="m 805.377,1164.13 c -0.724,52.18 -1.442,104.36 -2.151,156.54 -0.04,2.98 -1.73,6.44 -4.705,7.46 -78.255,26.69 -156.452,53.72 -235.724,77.28 -0.893,0.27 -1.975,0.38 -2.782,-0.18 -0.856,-0.6 -1.127,-1.69 -1.129,-2.68 -0.154,-66.01 -0.311,-132.02 -0.473,-198.03 -0.01,-4.21 3.035,-8.62 7.24,-9.57 78.41,-17.63 158.224,-28.03 238.359,-33.59 0.381,-0.03 0.625,0.3 0.801,0.6 0.39,0.65 0.575,1.42 0.564,2.17 z"
   style="fill:#22153f"
   id="path244" />&#10;                <g
   id="g253">&#10;                    <g
   transform="matrix(0.815816,-0.578312,-0.578312,-0.815816,924.879,2918.87)"
   id="g246">&#10;                        <g
   id="g245">&#10;                            <path
   d="m 835.03,1191.3 c 0.874,-6.54 -3.264,-12.77 -9.527,-14.66 -1.238,-0.37 -2.524,-0.58 -3.815,-0.63 -82.106,-3.68 -164.461,-6.58 -246.605,-2.4 -12.445,0.63 -22.554,11.91 -23.033,24.16 -2.727,69.63 -4.183,139.31 -6.992,208.94 -0.262,6.5 2.924,13.35 9.436,15.39 1.418,0.45 2.903,0.67 4.386,0.69 2.311,0.04 4.617,-0.37 6.812,-1.08 78.942,-25.42 159.313,-46.14 239.626,-66.71 2.968,-0.76 5.662,-2.38 7.935,-4.41 4.52,-4.04 7.661,-9.79 8.082,-15.88 3.31,-47.9 7.335,-95.8 13.695,-143.41 z"
   style="fill:#FDA333"
   id="path245" />&#10;                        </g>&#10;                    </g>&#10;                    <g
   transform="matrix(0.815816,-0.578312,-0.578312,-0.815816,924.879,2918.87)"
   id="g252">&#10;                        <g
   id="g251">&#10;                            <path
   d="m 824.626,1191.12 c 0.33,-2.56 -1.779,-4.84 -4.307,-4.9 -81.947,-2.12 -164.135,-3.4 -245.962,2.49 -3.893,0.28 -7.104,3.8 -7.269,7.66 -2.948,68.54 -4.538,137.13 -7.289,205.68 -0.104,2.6 1.633,5.08 4.362,5.17 0.732,0.02 1.464,-0.1 2.162,-0.32 78.93,-24.61 159.344,-44.17 239.723,-63.39 2.878,-0.69 4.957,-3.58 5.149,-6.46 3.251,-48.74 7.181,-97.48 13.431,-145.93 z"
   style="fill:#22153f"
   id="path246" />&#10;                            <g
   transform="matrix(0.43693,0,0,0.535215,398.531,570.816)"
   id="g247">&#10;                                <path
   d="m 827.559,1171.38 c 0.345,-2.84 -1.966,-5.37 -4.802,-5.37 -81.737,0.1 -163.483,1.04 -245.176,3.79 -3.514,0.11 -6.582,3.12 -6.851,6.62 -4.793,62.27 -8.473,124.63 -11.832,186.99 -0.176,3.27 2.561,6.14 5.893,5.63 80.159,-12.12 160.566,-22.54 241.061,-32.15 3.112,-0.37 5.585,-3.26 5.837,-6.32 4.375,-53.15 9.438,-106.25 15.87,-159.19 z"
   style="fill:#22153f"
   id="path247" />&#10;                            </g>&#10;                            <g
   transform="matrix(0.43693,0,0,0.535215,398.531,570.816)"
   id="g248">&#10;                                <path
   d="m 841.035,1171.33 c 0.224,-1.8 0.11,-3.65 -0.394,-5.39 -2.009,-6.96 -9.702,-10.8 -16.529,-10.85 -81.832,-0.55 -163.68,-0.27 -245.491,1.8 -11.089,0.28 -22.891,8.45 -23.764,20.17 -4.684,62.84 -8.278,125.77 -11.579,188.7 -0.098,1.88 0.08,3.79 0.603,5.6 0.367,1.28 0.904,2.51 1.6,3.64 3.791,6.17 11.733,8.43 18.596,7.35 80.082,-12.67 160.421,-23.67 240.852,-33.88 9.748,-1.23 19.177,-9.3 20.03,-19.42 4.431,-52.67 9.565,-105.28 16.076,-157.72 z M 574.76,1354.42 c 3.198,-57.39 6.722,-114.76 11.196,-172.06 75.744,-3.04 151.543,-4.55 227.341,-5.3 -5.807,49.62 -10.466,99.38 -14.523,149.17 -74.789,8.42 -149.501,17.58 -224.014,28.19 z"
   style="fill:#FDA333"
   id="path248" />&#10;                            </g>&#10;                            <g
   transform="matrix(0.853768,0,0,0.535215,103.182,641.839)"
   id="g249">&#10;                                <path
   d="m 818.837,1136.15 c 0.118,-2.07 -1.234,-4.16 -3.35,-4.5 -0.45,-0.08 -0.911,-0.08 -1.363,-0.02 -81.552,10.9 -163.112,23.8 -242.661,45.17 -3.849,1.03 -6.78,4.9 -6.87,8.87 -1.538,67.03 -2.913,134.06 -4.541,201.09 -0.015,0.65 0.053,1.3 0.251,1.92 0.853,2.66 4.011,2.94 6.234,1.92 78.136,-35.94 158.871,-65.86 239.843,-94.69 2.937,-1.05 5.033,-4.09 5.159,-7.18 2.075,-50.87 4.417,-101.74 7.298,-152.58 z"
   style="fill:#3c1d5a"
   id="path249" />&#10;                            </g>&#10;                            <g
   transform="matrix(0.853768,0,0,0.535215,103.182,641.839)"
   id="g250">&#10;                                <path
   d="m 825.151,1135.27 c 0.173,-2.98 -0.189,-6.02 -1.472,-8.75 -1.572,-3.33 -5.163,-5.9 -8.95,-5.45 -81.581,9.66 -163.207,21.31 -242.926,41.54 -6.034,1.53 -10.307,6.87 -12.785,12.31 -1.886,4.14 -2.911,8.66 -3.011,13.21 -1.495,67.53 -2.846,135.06 -4.477,202.59 -0.09,3.73 0.394,7.67 2.414,10.89 2.599,4.15 8.038,4.89 12.246,2.92 78.133,-36.71 158.834,-67.62 239.753,-97.55 4.57,-1.69 7.59,-5.98 9.47,-10.28 1.395,-3.2 2.213,-6.65 2.358,-10.14 2.096,-50.45 4.466,-100.88 7.38,-151.29 z m -256.472,240.55 c 1.495,-61.78 2.808,-123.56 4.263,-185.34 78.374,-22.07 158.779,-36.04 239.224,-48.04 -2.608,47.61 -4.766,95.24 -6.692,142.87 -79.947,27.37 -159.638,55.93 -236.795,90.51 z"
   style="fill:#FDA333"
   id="path250" />&#10;                            </g>&#10;                        </g>&#10;                    </g>&#10;                </g>&#10;            </g>&#10;        </g><g
     transform="matrix(5.6387397,0,0,3.5980511,9239.9872,-9783.8568)"
     id="g270">&#10;            <g
   transform="translate(-4491.23,1962.04)"
   id="g268">&#10;                <path
   d="m 3263.86,1566.23 c 2.02,-2.29 4.97,-3.73 8.25,-3.73 h 5.5 c 2.01,0 3.88,0.54 5.5,1.47 1.62,-0.93 3.5,-1.47 5.5,-1.47 h 38.5 c 2.01,0 3.88,0.54 5.5,1.47 1.62,-0.93 3.5,-1.47 5.5,-1.47 h 27.5 c 2.01,0 3.88,0.54 5.5,1.47 1.62,-0.93 3.5,-1.47 5.5,-1.47 h 22 c 1.73,0 3.37,0.4 4.82,1.11 1.42,-0.66 3.01,-1.04 4.68,-1.04 h 19.96 c 1.41,0 2.76,0.27 4,0.75 1.23,-0.48 2.58,-0.75 3.99,-0.75 h 19.97 c 1.4,0 2.75,0.27 3.99,0.75 1.24,-0.48 2.59,-0.75 3.99,-0.75 h 19.97 c 6.08,0 11,4.93 11,11 v 4 c 0,3.14 -1.32,5.98 -3.44,7.98 2.12,2.01 3.44,4.84 3.44,7.99 v 23.96 c 0,6.08 -4.92,11 -11,11 h -19.97 c -1.4,0 -2.75,-0.26 -3.99,-0.75 -1.24,0.49 -2.59,0.75 -3.99,0.75 h -19.97 c -1.41,0 -2.76,-0.26 -3.99,-0.75 -1.24,0.49 -2.59,0.75 -4,0.75 h -19.96 c -6.08,0 -11,-4.92 -11,-11 v -3.99 c 0,-3.15 1.32,-5.98 3.43,-7.99 -2.11,-2 -3.43,-4.84 -3.43,-7.99 V 1590 c -1.63,0 -4,0 -4,0 v 27.5 c 0,6.08 -4.92,11 -11,11 h -5.5 c -2,0 -3.88,-0.53 -5.5,-1.47 -1.62,0.94 -3.49,1.47 -5.5,1.47 h -27.5 c -2,0 -3.88,-0.53 -5.5,-1.47 -1.62,0.94 -3.49,1.47 -5.5,1.47 h -5.5 c -2,0 -3.88,-0.53 -5.5,-1.47 -1.62,0.94 -3.49,1.47 -5.5,1.47 h -5.5 c -2,0 -3.88,-0.53 -5.5,-1.47 -1.62,0.94 -3.49,1.47 -5.5,1.47 h -5.5 c -2,0 -3.88,-0.53 -5.5,-1.47 -1.62,0.94 -3.49,1.47 -5.5,1.47 h -27.5 c -6.07,0 -11,-4.92 -11,-11 v -44 c 0,-6.07 4.93,-11 11,-11 h 5.5 c 3.29,0 6.24,1.44 8.25,3.73 z"
   style="fill:#22153f"
   id="path267" />&#10;            </g>&#10;            <g
   transform="translate(-4491.23,1962.04)"
   id="g269">&#10;                <path
   d="m 3251.61,1613.5 v -44 c 0,-1.38 1.12,-2.5 2.5,-2.5 h 5.5 c 1.38,0 2.5,1.12 2.5,2.5 v 36 h 11.5 v -36 c 0,-1.38 1.12,-2.5 2.5,-2.5 h 5.5 c 1.38,0 2.5,1.12 2.5,2.5 v 44 c 0,1.38 -1.12,2.5 -2.5,2.5 h -27.5 c -1.38,0 -2.5,-1.12 -2.5,-2.5 z m 38.5,0 v -44 c 0,-1.38 1.12,-2.5 2.5,-2.5 h 38.5 c 1.38,0 2.5,1.12 2.5,2.5 v 44 c 0,1.38 -1.12,2.5 -2.5,2.5 h -5.5 c -1.38,0 -2.5,-1.12 -2.5,-2.5 v -36 h -6 v 36 c 0,1.38 -1.12,2.5 -2.5,2.5 h -5.5 c -1.38,0 -2.5,-1.12 -2.5,-2.5 v -36 h -6 v 36 c 0,1.38 -1.12,2.5 -2.5,2.5 h -5.5 c -1.38,0 -2.5,-1.12 -2.5,-2.5 z m 49.5,0 v -44 c 0,-1.38 1.12,-2.5 2.5,-2.5 h 27.5 c 1.38,0 2.5,1.12 2.5,2.5 v 27.5 c 0,1.38 -1.12,2.5 -2.5,2.5 h -19.5 v 6 h 19.5 c 1.38,0 2.5,1.12 2.5,2.5 v 5.5 c 0,1.38 -1.12,2.5 -2.5,2.5 h -27.5 c -1.38,0 -2.5,-1.12 -2.5,-2.5 z m 22,-24.5 v -11.5 h -11.5 v 11.5 z m 16.5,24.5 v -44 c 0,-1.38 1.12,-2.5 2.5,-2.5 h 22 c 1.38,0 2.5,1.12 2.5,2.5 v 5.5 c 0,1.38 -1.12,2.5 -2.5,2.5 h -14 v 36 c 0,1.38 -1.12,2.5 -2.5,2.5 h -5.5 c -1.38,0 -2.5,-1.12 -2.5,-2.5 z m 31.5,0 v -3.99 c 0,-1.38 1.11,-2.5 2.5,-2.5 h 13.47 v -10.98 h -13.47 c -1.39,0 -2.5,-1.12 -2.5,-2.5 v -23.96 c 0,-1.38 1.11,-2.5 2.5,-2.5 h 19.96 c 1.38,0 2.5,1.12 2.5,2.5 v 43.93 c 0,1.38 -1.12,2.5 -2.5,2.5 h -19.96 c -1.39,0 -2.5,-1.12 -2.5,-2.5 z m 15.97,-26.46 v -10.97 h -6.98 v 10.97 z m 11.98,26.46 v -3.99 c 0,-1.38 1.12,-2.5 2.5,-2.5 h 13.47 v -10.98 h -5.48 c -1.38,0 -2.5,-1.12 -2.5,-2.5 v -3.99 c 0,-1.38 1.12,-2.5 2.5,-2.5 h 5.48 v -10.97 h -13.47 c -1.38,0 -2.5,-1.12 -2.5,-2.5 v -4 c 0,-1.38 1.12,-2.5 2.5,-2.5 h 19.97 c 1.38,0 2.5,1.12 2.5,2.5 v 43.93 c 0,1.38 -1.12,2.5 -2.5,2.5 h -19.97 c -1.38,0 -2.5,-1.12 -2.5,-2.5 z m 27.95,0 v -43.93 c 0,-1.38 1.12,-2.5 2.5,-2.5 h 19.97 c 1.38,0 2.5,1.12 2.5,2.5 v 4 c 0,1.38 -1.12,2.5 -2.5,2.5 h -13.47 v 10.97 h 13.47 c 1.38,0 2.5,1.12 2.5,2.5 v 23.96 c 0,1.38 -1.12,2.5 -2.5,2.5 h -19.97 c -1.38,0 -2.5,-1.12 -2.5,-2.5 z m 15.98,-6.49 v -10.98 h -6.98 v 10.98 z"
   style="fill:#FDA333"
   id="path268" />&#10;            </g>&#10;        </g></g>&#10;        &#10;        &#10;        &#10;        &#10;    </g>&#10;    <defs
   id="defs464" />&#10;</svg>
