<?xml version="1.0" encoding="UTF-8" standalone="no"?>
<svg
   width="1305.135"
   height="336.65149"
   viewBox="0 0 1305.135 336.65149"
   version="1.1"
   xml:space="preserve"
   style="clip-rule:evenodd;fill-rule:evenodd;stroke-linejoin:round;stroke-miterlimit:2"
   id="svg464"
   xmlns="http://www.w3.org/2000/svg"
   xmlns:svg="http://www.w3.org/2000/svg">&#10;    <g
   id="Artboard1"
   transform="matrix(0.621151,0,0,1,-1618.7993,-2336.5031)">&#10;        &#10;        &#10;        &#10;        &#10;        &#10;        &#10;        &#10;        &#10;        &#10;        &#10;        &#10;        &#10;        &#10;        &#10;        &#10;        &#10;        &#10;        &#10;        &#10;        &#10;        &#10;        &#10;        &#10;        &#10;        &#10;        &#10;        &#10;        &#10;        &#10;        &#10;        &#10;        &#10;        &#10;        &#10;        &#10;        &#10;        &#10;        &#10;        &#10;        &#10;        &#10;        &#10;        &#10;        &#10;        &#10;        &#10;        &#10;        &#10;        <g
   transform="matrix(8.21181,0,0,5.10078,12888.3,-15641.4)"
   id="g270">&#10;            <g
   transform="translate(-4491.23,1962.04)"
   id="g268">&#10;                <path
   d="m 3263.86,1566.23 c 2.02,-2.29 4.97,-3.73 8.25,-3.73 h 5.5 c 2.01,0 3.88,0.54 5.5,1.47 1.62,-0.93 3.5,-1.47 5.5,-1.47 h 38.5 c 2.01,0 3.88,0.54 5.5,1.47 1.62,-0.93 3.5,-1.47 5.5,-1.47 h 27.5 c 2.01,0 3.88,0.54 5.5,1.47 1.62,-0.93 3.5,-1.47 5.5,-1.47 h 22 c 1.73,0 3.37,0.4 4.82,1.11 1.42,-0.66 3.01,-1.04 4.68,-1.04 h 19.96 c 1.41,0 2.76,0.27 4,0.75 1.23,-0.48 2.58,-0.75 3.99,-0.75 h 19.97 c 1.4,0 2.75,0.27 3.99,0.75 1.24,-0.48 2.59,-0.75 3.99,-0.75 h 19.97 c 6.08,0 11,4.93 11,11 v 4 c 0,3.14 -1.32,5.98 -3.44,7.98 2.12,2.01 3.44,4.84 3.44,7.99 v 23.96 c 0,6.08 -4.92,11 -11,11 h -19.97 c -1.4,0 -2.75,-0.26 -3.99,-0.75 -1.24,0.49 -2.59,0.75 -3.99,0.75 h -19.97 c -1.41,0 -2.76,-0.26 -3.99,-0.75 -1.24,0.49 -2.59,0.75 -4,0.75 h -19.96 c -6.08,0 -11,-4.92 -11,-11 v -3.99 c 0,-3.15 1.32,-5.98 3.43,-7.99 -2.11,-2 -3.43,-4.84 -3.43,-7.99 V 1590 c -1.63,0 -4,0 -4,0 v 27.5 c 0,6.08 -4.92,11 -11,11 h -5.5 c -2,0 -3.88,-0.53 -5.5,-1.47 -1.62,0.94 -3.49,1.47 -5.5,1.47 h -27.5 c -2,0 -3.88,-0.53 -5.5,-1.47 -1.62,0.94 -3.49,1.47 -5.5,1.47 h -5.5 c -2,0 -3.88,-0.53 -5.5,-1.47 -1.62,0.94 -3.49,1.47 -5.5,1.47 h -5.5 c -2,0 -3.88,-0.53 -5.5,-1.47 -1.62,0.94 -3.49,1.47 -5.5,1.47 h -5.5 c -2,0 -3.88,-0.53 -5.5,-1.47 -1.62,0.94 -3.49,1.47 -5.5,1.47 h -27.5 c -6.07,0 -11,-4.92 -11,-11 v -44 c 0,-6.07 4.93,-11 11,-11 h 5.5 c 3.29,0 6.24,1.44 8.25,3.73 z"
   style="fill:#22153f"
   id="path267" />&#10;            </g>&#10;            <g
   transform="translate(-4491.23,1962.04)"
   id="g269">&#10;                <path
   d="m 3251.61,1613.5 v -44 c 0,-1.38 1.12,-2.5 2.5,-2.5 h 5.5 c 1.38,0 2.5,1.12 2.5,2.5 v 36 h 11.5 v -36 c 0,-1.38 1.12,-2.5 2.5,-2.5 h 5.5 c 1.38,0 2.5,1.12 2.5,2.5 v 44 c 0,1.38 -1.12,2.5 -2.5,2.5 h -27.5 c -1.38,0 -2.5,-1.12 -2.5,-2.5 z m 38.5,0 v -44 c 0,-1.38 1.12,-2.5 2.5,-2.5 h 38.5 c 1.38,0 2.5,1.12 2.5,2.5 v 44 c 0,1.38 -1.12,2.5 -2.5,2.5 h -5.5 c -1.38,0 -2.5,-1.12 -2.5,-2.5 v -36 h -6 v 36 c 0,1.38 -1.12,2.5 -2.5,2.5 h -5.5 c -1.38,0 -2.5,-1.12 -2.5,-2.5 v -36 h -6 v 36 c 0,1.38 -1.12,2.5 -2.5,2.5 h -5.5 c -1.38,0 -2.5,-1.12 -2.5,-2.5 z m 49.5,0 v -44 c 0,-1.38 1.12,-2.5 2.5,-2.5 h 27.5 c 1.38,0 2.5,1.12 2.5,2.5 v 27.5 c 0,1.38 -1.12,2.5 -2.5,2.5 h -19.5 v 6 h 19.5 c 1.38,0 2.5,1.12 2.5,2.5 v 5.5 c 0,1.38 -1.12,2.5 -2.5,2.5 h -27.5 c -1.38,0 -2.5,-1.12 -2.5,-2.5 z m 22,-24.5 v -11.5 h -11.5 v 11.5 z m 16.5,24.5 v -44 c 0,-1.38 1.12,-2.5 2.5,-2.5 h 22 c 1.38,0 2.5,1.12 2.5,2.5 v 5.5 c 0,1.38 -1.12,2.5 -2.5,2.5 h -14 v 36 c 0,1.38 -1.12,2.5 -2.5,2.5 h -5.5 c -1.38,0 -2.5,-1.12 -2.5,-2.5 z m 31.5,0 v -3.99 c 0,-1.38 1.11,-2.5 2.5,-2.5 h 13.47 v -10.98 h -13.47 c -1.39,0 -2.5,-1.12 -2.5,-2.5 v -23.96 c 0,-1.38 1.11,-2.5 2.5,-2.5 h 19.96 c 1.38,0 2.5,1.12 2.5,2.5 v 43.93 c 0,1.38 -1.12,2.5 -2.5,2.5 h -19.96 c -1.39,0 -2.5,-1.12 -2.5,-2.5 z m 15.97,-26.46 v -10.97 h -6.98 v 10.97 z m 11.98,26.46 v -3.99 c 0,-1.38 1.12,-2.5 2.5,-2.5 h 13.47 v -10.98 h -5.48 c -1.38,0 -2.5,-1.12 -2.5,-2.5 v -3.99 c 0,-1.38 1.12,-2.5 2.5,-2.5 h 5.48 v -10.97 h -13.47 c -1.38,0 -2.5,-1.12 -2.5,-2.5 v -4 c 0,-1.38 1.12,-2.5 2.5,-2.5 h 19.97 c 1.38,0 2.5,1.12 2.5,2.5 v 43.93 c 0,1.38 -1.12,2.5 -2.5,2.5 h -19.97 c -1.38,0 -2.5,-1.12 -2.5,-2.5 z m 27.95,0 v -43.93 c 0,-1.38 1.12,-2.5 2.5,-2.5 h 19.97 c 1.38,0 2.5,1.12 2.5,2.5 v 4 c 0,1.38 -1.12,2.5 -2.5,2.5 h -13.47 v 10.97 h 13.47 c 1.38,0 2.5,1.12 2.5,2.5 v 23.96 c 0,1.38 -1.12,2.5 -2.5,2.5 h -19.97 c -1.38,0 -2.5,-1.12 -2.5,-2.5 z m 15.98,-6.49 v -10.98 h -6.98 v 10.98 z"
   style="fill:#6ce0f1"
   id="path268" />&#10;            </g>&#10;        </g>&#10;        &#10;        &#10;        &#10;        &#10;    </g>&#10;    <defs
   id="defs464" />&#10;</svg>
