<?xml version="1.0" encoding="UTF-8" standalone="no"?>
<svg
   width="1064.9994"
   height="68.000084"
   viewBox="0 0 1064.9994 68.000084"
   version="1.1"
   xml:space="preserve"
   style="clip-rule:evenodd;fill-rule:evenodd;stroke-linejoin:round;stroke-miterlimit:2"
   id="svg464"
   xmlns="http://www.w3.org/2000/svg"
   xmlns:svg="http://www.w3.org/2000/svg">&#10;    <g
   id="Artboard1"
   transform="matrix(0.621151,0,0,1,-315.15905,-2344.0826)">&#10;        &#10;        &#10;        <g
   transform="matrix(0.843429,0,0,0.1358,86.1808,2280.01)"
   id="g10"
   style="display:inline">&#10;            <path
   d="m 2532.23,597 c 0,-69.091 -14.54,-125.184 -32.45,-125.184 H 531.838 c -17.91,0 -32.45,56.093 -32.45,125.184 v 250.369 c 0,69.091 14.54,125.184 32.45,125.184 H 2499.78 c 17.91,0 32.45,-56.093 32.45,-125.184 z"
   style="fill:#22153f"
   id="path2" />&#10;            <clipPath
   id="_clip1">&#10;                <path
   d="m 2532.23,597 c 0,-69.091 -14.54,-125.184 -32.45,-125.184 H 531.838 c -17.91,0 -32.45,56.093 -32.45,125.184 v 250.369 c 0,69.091 14.54,125.184 32.45,125.184 H 2499.78 c 17.91,0 32.45,-56.093 32.45,-125.184 z"
   id="path3" />&#10;            </clipPath>&#10;            <g
   clip-path="url(#_clip1)"
   id="g9">&#10;                <g
   transform="matrix(0.535543,0,0,1.69618,1323.78,2726.71)"
   id="g4">&#10;                    <path
   d="m 1988.15,-1351.77 c -115.04,-236.16 -1032.041,-763.27 -994.003,0 16.283,326.65 561.103,1443.242 128.563,1732.845 0,0 721.2,-479.927 865.44,-768.734 143.59,-287.506 103.17,-752.281 0,-964.111 z"
   style="fill:url(#_Linear2)"
   id="path4" />&#10;                </g>&#10;                <g
   transform="matrix(0.535543,0,0,1.69618,1871.02,2687.07)"
   id="g5">&#10;                    <path
   d="M 1522.33,-869.712 C 1236.83,-699.707 1313.85,-1676.58 1277.69,-1793.88 1174.47,-2128.7 603.108,-548.465 1059.97,-166.6 537.303,153.927 -257.692,507.914 1745.11,518.142 1800.38,228.661 1707.95,-980.246 1522.33,-869.712 Z"
   style="fill:url(#_Linear3)"
   id="path5" />&#10;                </g>&#10;                <g
   transform="matrix(0.313436,1.67524,-0.3565,0.992717,822.077,-151.001)"
   id="g6">&#10;                    <path
   d="m 1988.15,-1351.77 c -364.26,-943.44 -1269.362,-621.45 -994.003,0 93.493,211.01 327.133,1025.437 0,964.111 130.013,-643.131 499.393,-521.605 994.003,0 -344.19,-630.611 -521.47,-1111.261 0,-964.111 z"
   style="fill:url(#_Linear4)"
   id="path6" />&#10;                </g>&#10;                <g
   transform="matrix(0.535543,0,0,1.69618,-142.992,2004.67)"
   id="g7">&#10;                    <path
   d="m 1988.15,-1351.77 c -271.57,-685.91 -600.92,-708.72 -994.003,0 948.773,527.178 520.103,755.56 0,964.111 78.103,-670.681 389.313,-723.971 994.003,0 -494.88,4.854 -639.6,-221.117 0,-964.111 z"
   style="fill:url(#_Linear5)"
   id="path7" />&#10;                </g>&#10;                <g
   transform="matrix(-0.187332,1.93553,0.440447,0.634452,1792.81,-1484.56)"
   id="g8">&#10;                    <path
   d="m 1988.15,-1351.77 c -271.57,-685.91 -600.92,-708.72 -994.003,0 911.453,351.827 126.843,-1091.91 0,964.111 -477.819,32.293 -815.506,799.554 994.003,0 -494.88,4.854 -639.6,-221.117 0,-964.111 z"
   style="fill:url(#_Linear6)"
   id="path8" />&#10;                </g>&#10;            </g>&#10;        </g>&#10;        &#10;        &#10;        &#10;        &#10;        &#10;        &#10;        &#10;        &#10;        &#10;        &#10;        &#10;        &#10;        &#10;        &#10;        &#10;        &#10;        &#10;        &#10;        &#10;        &#10;        &#10;        &#10;        &#10;        &#10;        &#10;        &#10;        &#10;        &#10;        &#10;        &#10;        &#10;        &#10;        &#10;        &#10;        &#10;        &#10;        &#10;        &#10;        &#10;        &#10;        &#10;        &#10;        &#10;        &#10;        &#10;        &#10;        &#10;        &#10;        &#10;        &#10;    </g>&#10;    <defs
   id="defs464"><linearGradient
     id="_Linear2"
     x1="0"
     y1="0"
     x2="1"
     y2="-0.0104946"
     gradientUnits="userSpaceOnUse"
     gradientTransform="matrix(69.2244,-1653.3,1552.6,73.7142,1313.65,-49.1659)"><stop
       offset="0"
       style="stop-color:rgb(108,224,241);stop-opacity:1"
       id="stop283" /><stop
       offset="1"
       style="stop-color:rgb(108,224,241);stop-opacity:0"
       id="stop284" /></linearGradient><linearGradient
     id="_Linear3"
     x1="0"
     y1="0"
     x2="1"
     y2="0"
     gradientUnits="userSpaceOnUse"
     gradientTransform="matrix(0,-2211.43,2076.73,0,1491.15,593.201)"><stop
       offset="0"
       style="stop-color:rgb(251,68,133);stop-opacity:1"
       id="stop285" /><stop
       offset="1"
       style="stop-color:rgb(251,68,133);stop-opacity:0"
       id="stop286" /></linearGradient><linearGradient
     id="_Linear4"
     x1="0"
     y1="0"
     x2="1"
     y2="0"
     gradientUnits="userSpaceOnUse"
     gradientTransform="matrix(0,-1653.3,1552.6,0,1491.15,108.793)"><stop
       offset="0"
       style="stop-color:rgb(253,163,51);stop-opacity:1"
       id="stop287" /><stop
       offset="1"
       style="stop-color:rgb(253,163,51);stop-opacity:0"
       id="stop288" /></linearGradient><linearGradient
     id="_Linear5"
     x1="0"
     y1="0"
     x2="1"
     y2="-0.085563697"
     gradientUnits="userSpaceOnUse"
     gradientTransform="matrix(793.677,-2064,1938.28,845.153,994.147,150.916)"><stop
       offset="0"
       style="stop-color:rgb(60,29,90);stop-opacity:1"
       id="stop289" /><stop
       offset="1"
       style="stop-color:rgb(60,29,90);stop-opacity:0"
       id="stop290" /></linearGradient><linearGradient
     id="_Linear6"
     x1="0"
     y1="0"
     x2="1"
     y2="-0.045033298"
     gradientUnits="userSpaceOnUse"
     gradientTransform="matrix(793.677,-2064,1938.28,845.153,994.147,150.916)"><stop
       offset="0"
       style="stop-color:rgb(60,29,90);stop-opacity:1"
       id="stop291" /><stop
       offset="1"
       style="stop-color:rgb(60,29,90);stop-opacity:0"
       id="stop292" /></linearGradient></defs>&#10;</svg>
