<?xml version="1.0" encoding="UTF-8" standalone="no"?>
<svg
   width="259.99976"
   height="68.000084"
   viewBox="0 0 259.99976 68.000084"
   version="1.1"
   xml:space="preserve"
   style="clip-rule:evenodd;fill-rule:evenodd;stroke-linejoin:round;stroke-miterlimit:2"
   id="svg2099"
   sodipodi:docname="umers_assets-2.svg"
   xmlns:inkscape="http://www.inkscape.org/namespaces/inkscape"
   xmlns:sodipodi="http://sodipodi.sourceforge.net/DTD/sodipodi-0.dtd"
   xmlns="http://www.w3.org/2000/svg"
   xmlns:svg="http://www.w3.org/2000/svg"><sodipodi:namedview
   id="namedview2099"
   pagecolor="#505050"
   bordercolor="#ffffff"
   borderopacity="1"
   inkscape:showpageshadow="0"
   inkscape:pageopacity="0"
   inkscape:pagecheckerboard="1"
   inkscape:deskcolor="#505050" />&#10;    <g
   clip-path="url(#_clip1)"
   id="g407"
   transform="matrix(0.733277,0,0,1,-156.31138,-3225.3426)">&#10;            &#10;            &#10;            &#10;            &#10;            &#10;            &#10;            &#10;            &#10;            &#10;            <g
   transform="matrix(0.174422,0,0,0.1358,126.064,3161.27)"
   id="g43">&#10;                <path
   d="m 2532.23,597 c 0,-69.091 -59.55,-125.184 -132.91,-125.184 H 632.305 c -73.359,0 -132.917,56.093 -132.917,125.184 v 250.369 c 0,69.091 59.558,125.184 132.917,125.184 H 2399.32 c 73.36,0 132.91,-56.093 132.91,-125.184 z"
   style="fill:#6ce0f1"
   id="path35" />&#10;                <clipPath
   id="_clip15">&#10;                    <path
   d="m 2532.23,597 c 0,-69.091 -59.55,-125.184 -132.91,-125.184 H 632.305 c -73.359,0 -132.917,56.093 -132.917,125.184 v 250.369 c 0,69.091 59.558,125.184 132.917,125.184 H 2399.32 c 73.36,0 132.91,-56.093 132.91,-125.184 z"
   id="path36" />&#10;                </clipPath>&#10;                <g
   clip-path="url(#_clip15)"
   id="g42">&#10;                    <g
   transform="matrix(0.293106,-0.422139,1.50727,0.928328,2651.34,2074.49)"
   id="g37">&#10;                        <path
   d="m 1988.15,-1351.77 c -115.04,-236.16 -1032.041,-763.27 -994.003,0 16.283,326.65 561.103,1443.242 128.563,1732.845 0,0 721.2,-479.927 865.44,-768.734 143.59,-287.506 103.17,-752.281 0,-964.111 z"
   style="fill:url(#_Linear16)"
   id="path37" />&#10;                    </g>&#10;                    <g
   transform="matrix(0.293106,-0.422139,1.50727,0.928328,2915.62,1621.42)"
   id="g38">&#10;                        <path
   d="M 1522.33,-869.712 C 1236.83,-699.707 1313.85,-1676.58 1277.69,-1793.88 1174.47,-2128.7 603.108,-548.465 1059.97,-166.6 537.303,153.927 -257.692,507.914 1745.11,518.142 1800.38,228.661 1707.95,-980.246 1522.33,-869.712 Z"
   style="fill:url(#_Linear17)"
   id="path38" />&#10;                    </g>&#10;                    <g
   transform="matrix(1.66021,0.669805,0.687041,0.824329,-180.463,894.956)"
   id="g39">&#10;                        <path
   d="m 1988.15,-1351.77 c -364.26,-943.44 -1269.362,-621.45 -994.003,0 93.493,211.01 327.133,1025.437 0,964.111 130.013,-643.131 499.393,-521.605 994.003,0 -344.19,-630.611 -521.47,-1111.261 0,-964.111 z"
   style="fill:url(#_Linear18)"
   id="path39" />&#10;                    </g>&#10;                    <g
   transform="matrix(0.293106,-0.422139,1.50727,0.928328,1206.94,2835.48)"
   id="g40">&#10;                        <path
   d="m 1988.15,-1351.77 c -271.57,-685.91 -600.92,-708.72 -994.003,0 948.773,527.178 520.103,755.56 0,964.111 78.103,-670.681 389.313,-723.971 994.003,0 -494.88,4.854 -639.6,-221.117 0,-964.111 z"
   style="fill:url(#_Linear19)"
   id="path40" />&#10;                    </g>&#10;                    <g
   transform="matrix(1.61744,1.20699,0.804851,5.98957e-5,-834.216,-600.087)"
   id="g41">&#10;                        <path
   d="m 1988.15,-1351.77 c -271.57,-685.91 -600.92,-708.72 -994.003,0 911.453,351.827 126.843,-1091.91 0,964.111 -477.819,32.293 -815.506,799.554 994.003,0 -494.88,4.854 -639.6,-221.117 0,-964.111 z"
   style="fill:url(#_Linear20)"
   id="path41" />&#10;                    </g>&#10;                </g>&#10;            </g>&#10;            &#10;            &#10;            &#10;            &#10;            &#10;            &#10;            &#10;            &#10;            &#10;            &#10;            &#10;            &#10;            &#10;            &#10;            &#10;            &#10;            &#10;            &#10;            &#10;            &#10;            &#10;            &#10;            &#10;            &#10;            &#10;            &#10;            &#10;            &#10;            &#10;            &#10;            &#10;            &#10;            &#10;            &#10;            &#10;            &#10;            &#10;            &#10;            &#10;            &#10;            &#10;            &#10;            &#10;            &#10;            &#10;            &#10;            &#10;            &#10;            &#10;            &#10;            &#10;            &#10;        </g>&#10;    &#10;    &#10;    &#10;    <defs
   id="defs2099"><linearGradient
     id="_Linear16"
     x1="0"
     y1="0"
     x2="1"
     y2="0.51404399"
     gradientUnits="userSpaceOnUse"
     gradientTransform="matrix(69.2244,-1653.3,1552.6,73.7142,1313.65,-49.1659)"><stop
       offset="0"
       style="stop-color:rgb(108,224,241);stop-opacity:1"
       id="stop1758" /><stop
       offset="1"
       style="stop-color:rgb(108,224,241);stop-opacity:0"
       id="stop1759" /></linearGradient><linearGradient
     id="_Linear17"
     x1="0"
     y1="0"
     x2="1"
     y2="0"
     gradientUnits="userSpaceOnUse"
     gradientTransform="matrix(0,-2211.43,2076.73,0,1491.15,593.201)"><stop
       offset="0"
       style="stop-color:rgb(251,68,133);stop-opacity:1"
       id="stop1760" /><stop
       offset="1"
       style="stop-color:rgb(251,68,133);stop-opacity:0"
       id="stop1761" /></linearGradient><linearGradient
     id="_Linear18"
     x1="0"
     y1="0"
     x2="1"
     y2="0.57553601"
     gradientUnits="userSpaceOnUse"
     gradientTransform="matrix(0,-1653.3,1552.6,0,1491.15,108.793)"><stop
       offset="0"
       style="stop-color:rgb(253,163,51);stop-opacity:1"
       id="stop1762" /><stop
       offset="1"
       style="stop-color:rgb(253,163,51);stop-opacity:0"
       id="stop1763" /></linearGradient><linearGradient
     id="_Linear19"
     x1="0"
     y1="0"
     x2="1"
     y2="1.53689"
     gradientUnits="userSpaceOnUse"
     gradientTransform="matrix(793.677,-2064,1938.28,845.153,994.147,150.916)"><stop
       offset="0"
       style="stop-color:rgb(60,29,90);stop-opacity:1"
       id="stop1764" /><stop
       offset="1"
       style="stop-color:rgb(60,29,90);stop-opacity:0"
       id="stop1765" /></linearGradient><linearGradient
     id="_Linear20"
     x1="0"
     y1="0"
     x2="1"
     y2="-0.0523987"
     gradientUnits="userSpaceOnUse"
     gradientTransform="matrix(793.677,-2064,1938.28,845.153,994.147,150.916)"><stop
       offset="0"
       style="stop-color:rgb(60,29,90);stop-opacity:1"
       id="stop1766" /><stop
       offset="1"
       style="stop-color:rgb(60,29,90);stop-opacity:0"
       id="stop1767" /></linearGradient><clipPath
     id="_clip1">&#10;            <rect
   x="-1453.85"
   y="2245.97"
   width="6225.5898"
   height="3146.4199"
   id="rect2" />&#10;        </clipPath></defs>&#10;</svg>
