<?xml version="1.0" encoding="UTF-8" standalone="no"?>
<svg
   width="259.99976"
   height="68.000084"
   viewBox="0 0 259.99976 68.000084"
   version="1.1"
   xml:space="preserve"
   style="clip-rule:evenodd;fill-rule:evenodd;stroke-linejoin:round;stroke-miterlimit:2"
   id="svg2099"
   sodipodi:docname="umers_assets-2.svg"
   xmlns:inkscape="http://www.inkscape.org/namespaces/inkscape"
   xmlns:sodipodi="http://sodipodi.sourceforge.net/DTD/sodipodi-0.dtd"
   xmlns="http://www.w3.org/2000/svg"
   xmlns:svg="http://www.w3.org/2000/svg"><sodipodi:namedview
   id="namedview2099"
   pagecolor="#505050"
   bordercolor="#ffffff"
   borderopacity="1"
   inkscape:showpageshadow="0"
   inkscape:pageopacity="0"
   inkscape:pagecheckerboard="1"
   inkscape:deskcolor="#505050" />&#10;    <g
   clip-path="url(#_clip1)"
   id="g407"
   transform="matrix(0.733277,0,0,1,-154.7715,-3485.5426)">&#10;            &#10;            &#10;            &#10;            &#10;            &#10;            &#10;            &#10;            &#10;            &#10;            &#10;            <g
   transform="matrix(0.174422,0,0,0.1358,123.964,3421.47)"
   id="g48">&#10;                <path
   d="m 2532.23,597 c 0,-69.091 -59.55,-125.184 -132.91,-125.184 H 632.305 c -73.359,0 -132.917,56.093 -132.917,125.184 v 250.369 c 0,69.091 59.558,125.184 132.917,125.184 H 2399.32 c 73.36,0 132.91,-56.093 132.91,-125.184 z"
   style="fill:#fda333"
   id="path43" />&#10;                <clipPath
   id="_clip21">&#10;                    <path
   d="m 2532.23,597 c 0,-69.091 -59.55,-125.184 -132.91,-125.184 H 632.305 c -73.359,0 -132.917,56.093 -132.917,125.184 v 250.369 c 0,69.091 59.558,125.184 132.917,125.184 H 2399.32 c 73.36,0 132.91,-56.093 132.91,-125.184 z"
   id="path44" />&#10;                </clipPath>&#10;                <g
   clip-path="url(#_clip21)"
   id="g47">&#10;                    <g
   transform="matrix(0.293106,-0.422139,1.50727,0.928328,3625.17,2410.97)"
   id="g45">&#10;                        <path
   d="m 1988.15,-1351.77 c -115.04,-236.16 -1032.041,-763.27 -994.003,0 16.283,326.65 561.103,1443.242 128.563,1732.845 0,0 721.2,-479.927 865.44,-768.734 143.59,-287.506 103.17,-752.281 0,-964.111 z"
   style="fill:url(#_Linear22)"
   id="path45" />&#10;                    </g>&#10;                    <g
   transform="matrix(0.293106,-0.422139,1.50727,0.928328,1206.94,2835.48)"
   id="g46">&#10;                        <path
   d="m 1988.15,-1351.77 c -271.57,-685.91 -600.92,-708.72 -994.003,0 948.773,527.178 520.103,755.56 0,964.111 78.103,-670.681 389.313,-723.971 994.003,0 -494.88,4.854 -639.6,-221.117 0,-964.111 z"
   style="fill:url(#_Linear23)"
   id="path46" />&#10;                    </g>&#10;                </g>&#10;            </g>&#10;            &#10;            &#10;            &#10;            &#10;            &#10;            &#10;            &#10;            &#10;            &#10;            &#10;            &#10;            &#10;            &#10;            &#10;            &#10;            &#10;            &#10;            &#10;            &#10;            &#10;            &#10;            &#10;            &#10;            &#10;            &#10;            &#10;            &#10;            &#10;            &#10;            &#10;            &#10;            &#10;            &#10;            &#10;            &#10;            &#10;            &#10;            &#10;            &#10;            &#10;            &#10;            &#10;            &#10;            &#10;            &#10;            &#10;            &#10;            &#10;            &#10;            &#10;            &#10;        </g>&#10;    &#10;    &#10;    &#10;    <defs
   id="defs2099"><linearGradient
     id="_Linear22"
     x1="0"
     y1="0"
     x2="1"
     y2="0"
     gradientUnits="userSpaceOnUse"
     gradientTransform="matrix(-324.788,-856.986,519.482,-17.4094,1707.67,-845.484)"><stop
       offset="0"
       style="stop-color:rgb(108,224,241);stop-opacity:1"
       id="stop1768" /><stop
       offset="1"
       style="stop-color:rgb(108,224,241);stop-opacity:0"
       id="stop1769" /></linearGradient><linearGradient
     id="_Linear23"
     x1="0"
     y1="0"
     x2="1"
     y2="1.53689"
     gradientUnits="userSpaceOnUse"
     gradientTransform="matrix(793.677,-2064,1938.28,845.153,994.147,150.916)"><stop
       offset="0"
       style="stop-color:rgb(60,29,90);stop-opacity:1"
       id="stop1770" /><stop
       offset="1"
       style="stop-color:rgb(60,29,90);stop-opacity:0"
       id="stop1771" /></linearGradient><clipPath
     id="_clip1">&#10;            <rect
   x="-1453.85"
   y="2245.97"
   width="6225.5898"
   height="3146.4199"
   id="rect2" />&#10;        </clipPath></defs>&#10;</svg>
